<?xml version="1.0" standalone="no"?>
<!DOCTYPE svg PUBLIC "-//W3C//DTD SVG 20010904//EN"
 "http://www.w3.org/TR/2001/REC-SVG-20010904/DTD/svg10.dtd">
<svg version="1.0" xmlns="http://www.w3.org/2000/svg"
 width="359.000000pt" height="359.000000pt" viewBox="0 0 359.000000 359.000000"
 preserveAspectRatio="xMidYMid meet">
<metadata>
Created by potrace 1.14, written by Peter Selinger 2001-2017
</metadata>
<g transform="translate(0.000000,359.000000) scale(0.100000,-0.100000)"
fill="#000000" stroke="none">
<path d="M2000 2580 c-9 -6 -10 -10 -3 -10 6 0 15 5 18 10 8 12 4 12 -15 0z"/>
<path d="M1893 2525 c-23 -13 -95 -51 -160 -85 -69 -35 -109 -60 -95 -60 12 0
41 12 65 27 23 15 45 26 50 25 4 -1 7 3 7 8 0 6 3 9 8 8 6 -2 25 8 147 79 22
12 36 23 30 22 -5 0 -29 -11 -52 -24z"/>
<path d="M1392 2492 c-114 -33 -139 -50 -81 -54 13 -1 58 14 99 33 41 20 86
41 100 47 45 19 7 11 -118 -26z"/>
<path d="M1430 2436 c-30 -19 -64 -42 -75 -51 -32 -26 43 12 82 41 17 13 36
24 42 24 6 0 11 5 11 10 0 14 1 14 -60 -24z"/>
<path d="M1500 2203 c0 -164 2 -192 16 -204 15 -12 16 -8 10 46 -3 33 -8 123
-12 200 -3 77 -7 142 -10 144 -2 2 -4 -81 -4 -186z"/>
<path d="M1965 2229 c-49 -27 -143 -77 -207 -111 -64 -34 -114 -66 -112 -70
14 -22 66 1 215 96 233 149 259 170 104 85z"/>
<path d="M1900 2261 c-8 -6 -17 -8 -20 -6 -4 2 -7 -2 -7 -10 0 -14 9 -11 47
15 19 12 0 13 -20 1z"/>
<path d="M1307 2249 c7 -7 15 -10 18 -7 3 3 -2 9 -12 12 -14 6 -15 5 -6 -5z"/>
<path d="M1345 2250 c3 -4 16 -10 30 -12 13 -3 22 -2 20 2 -3 4 -16 10 -30 12
-13 3 -22 2 -20 -2z"/>
<path d="M1621 2244 c-17 -12 -19 -19 -11 -35 6 -10 18 -18 28 -18 16 1 16 2
0 6 -10 2 -18 13 -18 24 0 18 10 23 38 20 16 -2 15 6 -2 12 -7 3 -23 -1 -35
-9z"/>
<path d="M1705 2250 c-3 -6 1 -7 9 -4 18 7 21 14 7 14 -6 0 -13 -4 -16 -10z"/>
<path d="M2180 2239 c-22 -18 -22 -19 -3 -10 12 6 25 16 28 21 9 15 3 12 -25
-11z"/>
<path d="M1806 2205 c-41 -20 -90 -55 -61 -44 25 10 115 60 115 64 0 6 4 8
-54 -20z"/>
<path d="M1395 2211 c-6 -5 -21 -11 -35 -14 l-25 -4 26 -2 c15 0 32 6 39 14
14 16 10 21 -5 6z"/>
<path d="M2115 2196 c-17 -13 -88 -62 -160 -111 -71 -48 -138 -95 -149 -105
-18 -17 -18 -18 2 -24 16 -5 40 9 104 61 46 37 101 82 122 98 21 17 50 40 65
53 14 13 35 27 45 31 11 4 15 10 10 14 -6 3 -23 -5 -39 -17z"/>
<path d="M2273 2203 c15 -2 37 -2 50 0 12 2 0 4 -28 4 -27 0 -38 -2 -22 -4z"/>
<path d="M1890 1982 c0 -7 -5 -12 -11 -12 -18 0 -33 -22 -73 -110 -22 -47 -95
-199 -162 -337 -67 -139 -121 -253 -119 -253 4 0 74 131 185 345 40 77 99 191
132 253 33 63 57 116 54 119 -3 4 -6 1 -6 -5z"/>
<path d="M1535 1930 c4 -6 1 -18 -7 -27 -11 -14 -8 -13 15 1 32 22 35 36 6 36
-11 0 -17 -4 -14 -10z"/>
<path d="M1386 1875 c37 -157 97 -204 199 -155 36 17 119 90 103 90 -4 0 -13
-6 -20 -13 -59 -56 -81 -67 -129 -67 -28 0 -58 4 -68 10 -10 5 -31 40 -47 77
-31 77 -49 103 -38 58z"/>
<path d="M27 1478 c-32 -168 -34 -213 -10 -226 19 -10 95 -2 178 18 85 21 72
28 -44 24 l-111 -5 0 30 c0 16 7 64 15 107 32 173 33 188 15 191 -12 3 -21
-27 -43 -139z"/>
<path d="M1869 1591 c-84 -53 -159 -157 -161 -221 -2 -68 55 -118 145 -127 62
-6 152 16 188 47 l24 20 -45 -16 c-25 -9 -77 -16 -117 -16 -82 0 -129 20 -151
66 -12 24 -11 33 13 81 31 65 107 136 164 155 23 7 41 19 41 27 0 23 -54 15
-101 -16z"/>
<path d="M1390 1535 c0 -16 -6 -25 -15 -25 -18 0 -20 -16 -2 -23 10 -4 12 -21
6 -73 -5 -38 -8 -89 -8 -114 1 -42 1 -43 10 -15 5 16 11 57 14 90 12 125 12
125 50 125 19 0 35 5 35 11 0 6 -10 10 -22 9 -40 -4 -48 0 -48 20 0 11 -4 20
-10 20 -5 0 -10 -11 -10 -25z"/>
<path d="M2126 1528 c-24 -145 -34 -264 -23 -274 4 -4 19 19 34 52 l27 59 7
-50 6 -50 1 62 c2 69 -8 85 -33 51 -18 -25 -18 -23 1 128 6 50 -13 70 -20 22z"/>
<path d="M2912 1503 c-22 -108 -24 -168 -8 -207 8 -20 21 -36 27 -36 10 0 10
3 1 12 -16 16 -15 138 2 208 13 54 12 80 -3 80 -4 0 -12 -26 -19 -57z"/>
<path d="M3045 1548 c-28 -92 -36 -231 -14 -266 17 -27 34 -29 19 -3 -14 28
-12 103 5 194 8 43 15 81 15 83 0 10 -21 3 -25 -8z"/>
<path d="M3140 1426 c0 -11 9 -16 26 -16 31 0 28 23 -4 28 -15 2 -22 -2 -22
-12z"/>
<path d="M998 1417 c-41 -19 -78 -58 -78 -82 0 -12 12 -32 26 -46 24 -22 34
-24 136 -25 l110 -1 35 53 c20 30 39 54 44 54 4 0 11 -16 15 -35 9 -52 26 -43
20 11 -6 50 -20 81 -33 75 -4 -2 -24 -27 -43 -54 l-35 -50 -3 32 c-3 27 -6 30
-18 20 -8 -6 -14 -24 -14 -40 0 -17 -7 -32 -17 -38 -35 -18 -183 6 -183 30 0
5 -1 12 -2 16 -2 3 8 8 22 10 46 7 111 44 108 62 -4 20 -53 24 -90 8z m52 -21
c-19 -18 -70 -32 -70 -19 0 12 39 31 65 32 17 1 17 -1 5 -13z"/>
<path d="M2298 1409 c-71 -37 -80 -102 -19 -133 42 -22 147 -21 193 2 34 18
36 18 47 0 15 -25 53 -23 70 5 24 37 51 95 51 109 -1 12 -15 -2 -66 -67 l-23
-30 -25 58 c-14 31 -30 57 -36 57 -19 0 -21 -27 -5 -66 9 -22 12 -41 7 -46
-27 -27 -222 1 -222 31 0 5 24 17 53 25 55 16 94 47 82 65 -10 17 -67 12 -107
-10z m67 -13 c-28 -19 -65 -29 -65 -18 0 11 39 30 65 31 19 1 19 1 0 -13z"/>
<path d="M3284 1416 c-35 -15 -74 -60 -74 -86 0 -9 12 -27 26 -41 24 -22 33
-24 137 -24 l111 0 7 32 c3 18 14 44 24 59 14 22 22 25 48 21 l32 -6 -30 14
c-24 10 -35 11 -55 1 -14 -7 -33 -11 -42 -9 -15 4 -18 -3 -18 -41 0 -50 1 -50
-75 -47 -66 1 -101 10 -119 30 -17 18 -16 19 16 26 56 12 108 43 108 65 0 16
-7 20 -32 20 -18 -1 -47 -7 -64 -14z m66 -11 c0 -7 -57 -35 -72 -35 -20 1 32
40 53 40 10 0 19 -2 19 -5z"/>
<path d="M524 1394 c-10 -39 3 -107 22 -121 25 -18 57 -16 85 6 13 10 29 16
34 14 6 -2 12 9 13 24 2 16 4 37 5 47 4 37 -18 25 -43 -22 -17 -33 -32 -48
-49 -50 -31 -5 -41 12 -41 76 0 55 -15 70 -26 26z"/>
<path d="M2757 1386 c-57 -38 -79 -68 -75 -99 4 -32 50 -35 77 -6 16 18 24 20
33 11 7 -7 19 -12 28 -12 12 1 11 3 -3 11 -15 9 -17 18 -12 45 7 42 -9 45 -29
6 -21 -40 -54 -68 -67 -55 -14 14 28 63 75 88 20 11 36 23 36 27 0 18 -19 13
-63 -16z"/>
<path d="M382 1381 c-52 -34 -74 -64 -70 -94 4 -31 44 -35 74 -6 19 18 27 20
36 11 7 -7 16 -12 21 -12 5 0 1 7 -7 16 -12 11 -13 20 -6 34 13 25 13 30 -5
30 -8 0 -15 -4 -15 -8 0 -4 -13 -23 -29 -42 -21 -25 -32 -32 -41 -24 -17 17
-4 36 55 79 30 22 55 41 55 42 0 11 -32 -1 -68 -26z"/>
<path d="M791 1381 c-7 -5 -22 -6 -32 -4 -17 5 -19 -1 -19 -56 0 -81 21 -82
46 -3 18 53 21 57 51 57 17 0 29 3 26 7 -6 11 -55 10 -72 -1z"/>
<path d="M3147 1377 c-12 -33 -19 -107 -9 -107 15 0 37 99 25 111 -7 7 -12 5
-16 -4z"/>
<path d="M1505 1239 c-4 -6 -5 -12 -2 -15 2 -3 7 2 10 11 7 17 1 20 -8 4z"/>
<path d="M1485 1199 c-4 -6 -5 -12 -2 -15 2 -3 7 2 10 11 7 17 1 20 -8 4z"/>
</g>
</svg>
